<svg xmlns="http://www.w3.org/2000/svg" width="1000" height="295.463" viewBox="0 0 1000 295.463">
  <g>
    <g>
      <path d="M866.8,39.12h3.457a45.707,45.707,0,0,1,45.707,45.707v3.458a45.706,45.706,0,0,1-45.706,45.706H866.8a45.707,45.707,0,0,1-45.707-45.707V84.827A45.707,45.707,0,0,1,866.8,39.12Z" fill="#eaf5fe"/>
      <path d="M870.258,41.619a43.207,43.207,0,0,1,43.207,43.207v3.457a43.207,43.207,0,0,1-43.207,43.207H866.8A43.207,43.207,0,0,1,823.6,88.283V84.826A43.207,43.207,0,0,1,866.8,41.619h3.456m0-5H866.8A48.262,48.262,0,0,0,818.6,84.826v3.457A48.262,48.262,0,0,0,866.8,136.49h3.456a48.262,48.262,0,0,0,48.207-48.207V84.826a48.262,48.262,0,0,0-48.207-48.207Z" fill="#fff"/>
    </g>
    <path d="M870.258,42.051a42.775,42.775,0,0,1,42.775,42.775v3.457a42.775,42.775,0,0,1-42.775,42.775H866.8a42.775,42.775,0,0,1-42.775-42.775V84.826A42.775,42.775,0,0,1,866.8,42.051h3.456m0-5H866.8a47.829,47.829,0,0,0-47.775,47.775v3.457A47.829,47.829,0,0,0,866.8,136.058h3.456a47.829,47.829,0,0,0,47.775-47.775V84.826a47.829,47.829,0,0,0-47.775-47.775Z" fill="#fff"/>
  </g>
  <g>
    <g>
      <path d="M759.648,39.12h3.458a45.707,45.707,0,0,1,45.707,45.707v3.457a45.707,45.707,0,0,1-45.707,45.707h-3.456a45.707,45.707,0,0,1-45.707-45.707V84.826A45.706,45.706,0,0,1,759.648,39.12Z" fill="#cfe9fe"/>
      <path d="M763.105,41.619a43.207,43.207,0,0,1,43.207,43.207v3.457a43.207,43.207,0,0,1-43.207,43.207h-3.456a43.207,43.207,0,0,1-43.207-43.207V84.826a43.207,43.207,0,0,1,43.207-43.207h3.456m0-5h-3.456a48.262,48.262,0,0,0-48.207,48.207v3.457a48.262,48.262,0,0,0,48.207,48.207h3.456a48.262,48.262,0,0,0,48.207-48.207V84.826a48.262,48.262,0,0,0-48.207-48.207Z" fill="#fff"/>
    </g>
    <path d="M763.105,42.051A42.775,42.775,0,0,1,805.88,84.826v3.457a42.775,42.775,0,0,1-42.775,42.775h-3.456a42.775,42.775,0,0,1-42.775-42.775V84.826a42.775,42.775,0,0,1,42.775-42.775h3.456m0-5h-3.456a47.829,47.829,0,0,0-47.775,47.775v3.457a47.829,47.829,0,0,0,47.775,47.775h3.456A47.829,47.829,0,0,0,810.88,88.283V84.826a47.829,47.829,0,0,0-47.775-47.775Z" fill="#fff"/>
  </g>
  <g>
    <g>
      <rect x="606.789" y="39.12" width="94.87" height="94.87" rx="45.707" fill="#90d0fe"/>
      <path d="M655.953,41.619a43.207,43.207,0,0,1,43.206,43.207v3.457a43.207,43.207,0,0,1-43.206,43.207H652.5a43.207,43.207,0,0,1-43.207-43.207V84.826A43.207,43.207,0,0,1,652.5,41.619h3.457m0-5H652.5a48.262,48.262,0,0,0-48.207,48.207v3.457A48.262,48.262,0,0,0,652.5,136.49h3.457a48.261,48.261,0,0,0,48.206-48.207V84.826a48.261,48.261,0,0,0-48.206-48.207Z" fill="#fff"/>
    </g>
    <path d="M655.953,42.051a42.775,42.775,0,0,1,42.774,42.775v3.457a42.775,42.775,0,0,1-42.774,42.775H652.5a42.775,42.775,0,0,1-42.775-42.775V84.826A42.775,42.775,0,0,1,652.5,42.051h3.457m0-5H652.5a47.829,47.829,0,0,0-47.775,47.775v3.457A47.829,47.829,0,0,0,652.5,136.058h3.457a47.829,47.829,0,0,0,47.774-47.775V84.826a47.829,47.829,0,0,0-47.774-47.775Z" fill="#fff"/>
  </g>
  <g>
    <g>
      <path d="M545.343,39.12H548.8a45.707,45.707,0,0,1,45.707,45.707v3.457A45.707,45.707,0,0,1,548.8,133.99h-3.456a45.707,45.707,0,0,1-45.707-45.707V84.826A45.706,45.706,0,0,1,545.343,39.12Z" fill="#0d9dda"/>
      <path d="M548.8,41.619a43.207,43.207,0,0,1,43.206,43.207v3.457A43.207,43.207,0,0,1,548.8,131.49h-3.457a43.208,43.208,0,0,1-43.207-43.207V84.826a43.208,43.208,0,0,1,43.207-43.207H548.8m0-5h-3.457a48.262,48.262,0,0,0-48.207,48.207v3.457a48.262,48.262,0,0,0,48.207,48.207H548.8a48.261,48.261,0,0,0,48.206-48.207V84.826A48.261,48.261,0,0,0,548.8,36.619Z" fill="#fff"/>
    </g>
    <path d="M548.8,42.051a42.775,42.775,0,0,1,42.774,42.775v3.457A42.775,42.775,0,0,1,548.8,131.058h-3.457a42.775,42.775,0,0,1-42.775-42.775V84.826a42.775,42.775,0,0,1,42.775-42.775H548.8m0-5h-3.457a47.829,47.829,0,0,0-47.775,47.775v3.457a47.829,47.829,0,0,0,47.775,47.775H548.8a47.829,47.829,0,0,0,47.774-47.775V84.826A47.829,47.829,0,0,0,548.8,37.051Z" fill="#fff"/>
  </g>
  <g>
    <g>
      <rect x="392.483" y="39.12" width="94.87" height="94.87" rx="45.707" fill="#0176d3"/>
      <path d="M441.647,41.619a43.208,43.208,0,0,1,43.207,43.207v3.457a43.208,43.208,0,0,1-43.207,43.207H438.19a43.208,43.208,0,0,1-43.207-43.207V84.826A43.208,43.208,0,0,1,438.19,41.619h3.457m0-5H438.19a48.262,48.262,0,0,0-48.207,48.207v3.457A48.262,48.262,0,0,0,438.19,136.49h3.457a48.262,48.262,0,0,0,48.207-48.207V84.826a48.262,48.262,0,0,0-48.207-48.207Z" fill="#fff"/>
    </g>
    <path d="M441.647,42.051a42.774,42.774,0,0,1,42.774,42.775v3.457a42.774,42.774,0,0,1-42.774,42.775H438.19a42.775,42.775,0,0,1-42.775-42.775V84.826A42.775,42.775,0,0,1,438.19,42.051h3.457m0-5H438.19a47.829,47.829,0,0,0-47.775,47.775v3.457a47.829,47.829,0,0,0,47.775,47.775h3.457a47.829,47.829,0,0,0,47.774-47.775V84.826a47.829,47.829,0,0,0-47.774-47.775Z" fill="#fff"/>
  </g>
  <g>
    <g>
      <rect x="285.331" y="39.12" width="94.87" height="94.87" rx="45.707" fill="#0b5cab"/>
      <path d="M334.494,41.619A43.208,43.208,0,0,1,377.7,84.826v3.457a43.208,43.208,0,0,1-43.207,43.207h-3.457A43.208,43.208,0,0,1,287.83,88.283V84.826a43.208,43.208,0,0,1,43.207-43.207h3.457m0-5h-3.457A48.262,48.262,0,0,0,282.83,84.826v3.457a48.262,48.262,0,0,0,48.207,48.207h3.457A48.262,48.262,0,0,0,382.7,88.283V84.826a48.262,48.262,0,0,0-48.207-48.207Z" fill="#fff"/>
    </g>
    <path d="M334.494,42.051a42.775,42.775,0,0,1,42.775,42.775v3.457a42.775,42.775,0,0,1-42.775,42.775h-3.457a42.775,42.775,0,0,1-42.775-42.775V84.826a42.775,42.775,0,0,1,42.775-42.775h3.457m0-5h-3.457a47.829,47.829,0,0,0-47.775,47.775v3.457a47.829,47.829,0,0,0,47.775,47.775h3.457a47.829,47.829,0,0,0,47.775-47.775V84.826a47.829,47.829,0,0,0-47.775-47.775Z" fill="#fff"/>
  </g>
  <g>
    <g>
      <rect x="178.178" y="39.12" width="94.87" height="94.87" rx="45.707" fill="#032d60"/>
      <path d="M227.341,41.619a43.208,43.208,0,0,1,43.207,43.207v3.457a43.208,43.208,0,0,1-43.207,43.207h-3.457a43.207,43.207,0,0,1-43.206-43.207V84.826a43.207,43.207,0,0,1,43.206-43.207h3.457m0-5h-3.457a48.261,48.261,0,0,0-48.206,48.207v3.457a48.261,48.261,0,0,0,48.206,48.207h3.457a48.262,48.262,0,0,0,48.207-48.207V84.826a48.262,48.262,0,0,0-48.207-48.207Z" fill="#fff"/>
    </g>
    <path d="M227.341,42.051a42.775,42.775,0,0,1,42.775,42.775v3.457a42.775,42.775,0,0,1-42.775,42.775h-3.457A42.774,42.774,0,0,1,181.11,88.283V84.826a42.774,42.774,0,0,1,42.774-42.775h3.457m0-5h-3.457A47.829,47.829,0,0,0,176.11,84.826v3.457a47.829,47.829,0,0,0,47.774,47.775h3.457a47.829,47.829,0,0,0,47.775-47.775V84.826a47.829,47.829,0,0,0-47.775-47.775Z" fill="#fff"/>
  </g>
  <g>
    <g>
      <rect x="606.789" y="161.883" width="94.87" height="94.87" rx="45.707" fill="#f5f2f2"/>
      <path d="M655.953,164.383a43.206,43.206,0,0,1,43.206,43.207v3.456a43.206,43.206,0,0,1-43.206,43.207H652.5a43.206,43.206,0,0,1-43.207-43.207V207.59A43.206,43.206,0,0,1,652.5,164.383h3.457m0-5H652.5a48.262,48.262,0,0,0-48.207,48.207v3.456A48.262,48.262,0,0,0,652.5,259.253h3.457a48.261,48.261,0,0,0,48.206-48.207V207.59a48.261,48.261,0,0,0-48.206-48.207Z" fill="#fff"/>
    </g>
    <path d="M655.953,164.815a42.775,42.775,0,0,1,42.774,42.775v3.456a42.775,42.775,0,0,1-42.774,42.775H652.5a42.775,42.775,0,0,1-42.775-42.775V207.59A42.775,42.775,0,0,1,652.5,164.815h3.457m0-5H652.5a47.829,47.829,0,0,0-47.775,47.775v3.456A47.829,47.829,0,0,0,652.5,258.821h3.457a47.829,47.829,0,0,0,47.774-47.775V207.59a47.829,47.829,0,0,0-47.774-47.775Z" fill="#fff"/>
  </g>
  <g>
    <g>
      <path d="M545.343,161.883H548.8a45.707,45.707,0,0,1,45.707,45.707v3.456A45.707,45.707,0,0,1,548.8,256.753h-3.457a45.707,45.707,0,0,1-45.707-45.707v-3.458A45.706,45.706,0,0,1,545.343,161.883Z" fill="#ded6cf"/>
      <path d="M548.8,164.383a43.206,43.206,0,0,1,43.206,43.207v3.456A43.206,43.206,0,0,1,548.8,254.253h-3.457a43.207,43.207,0,0,1-43.207-43.207V207.59a43.207,43.207,0,0,1,43.207-43.207H548.8m0-5h-3.457a48.262,48.262,0,0,0-48.207,48.207v3.456a48.262,48.262,0,0,0,48.207,48.207H548.8a48.261,48.261,0,0,0,48.206-48.207V207.59A48.261,48.261,0,0,0,548.8,159.383Z" fill="#fff"/>
    </g>
    <path d="M548.8,164.815a42.775,42.775,0,0,1,42.774,42.775v3.456A42.775,42.775,0,0,1,548.8,253.821h-3.457a42.775,42.775,0,0,1-42.775-42.775V207.59a42.775,42.775,0,0,1,42.775-42.775H548.8m0-5h-3.457a47.829,47.829,0,0,0-47.775,47.775v3.456a47.829,47.829,0,0,0,47.775,47.775H548.8a47.829,47.829,0,0,0,47.774-47.775V207.59A47.829,47.829,0,0,0,548.8,159.815Z" fill="#fff"/>
  </g>
  <g>
    <g>
      <rect x="392.483" y="161.883" width="94.87" height="94.87" rx="45.707" fill="#c1b9b4"/>
      <path d="M441.647,164.383a43.207,43.207,0,0,1,43.207,43.207v3.456a43.207,43.207,0,0,1-43.207,43.207H438.19a43.207,43.207,0,0,1-43.207-43.207V207.59a43.207,43.207,0,0,1,43.207-43.207h3.457m0-5H438.19a48.262,48.262,0,0,0-48.207,48.207v3.456a48.262,48.262,0,0,0,48.207,48.207h3.457a48.262,48.262,0,0,0,48.207-48.207V207.59a48.262,48.262,0,0,0-48.207-48.207Z" fill="#fff"/>
    </g>
    <path d="M441.647,164.815a42.774,42.774,0,0,1,42.774,42.775v3.456a42.774,42.774,0,0,1-42.774,42.775H438.19a42.775,42.775,0,0,1-42.775-42.775V207.59a42.775,42.775,0,0,1,42.775-42.775h3.457m0-5H438.19a47.829,47.829,0,0,0-47.775,47.775v3.456a47.829,47.829,0,0,0,47.775,47.775h3.457a47.829,47.829,0,0,0,47.774-47.775V207.59a47.829,47.829,0,0,0-47.774-47.775Z" fill="#fff"/>
  </g>
  <g>
    <g>
      <rect x="285.331" y="161.883" width="94.87" height="94.87" rx="45.707" fill="#9a8f87"/>
      <path d="M334.494,164.383A43.207,43.207,0,0,1,377.7,207.59v3.456a43.207,43.207,0,0,1-43.207,43.207h-3.457a43.207,43.207,0,0,1-43.207-43.207V207.59a43.207,43.207,0,0,1,43.207-43.207h3.457m0-5h-3.457A48.262,48.262,0,0,0,282.83,207.59v3.456a48.262,48.262,0,0,0,48.207,48.207h3.457A48.262,48.262,0,0,0,382.7,211.046V207.59a48.262,48.262,0,0,0-48.207-48.207Z" fill="#fff"/>
    </g>
    <path d="M334.494,164.815a42.775,42.775,0,0,1,42.775,42.775v3.456a42.775,42.775,0,0,1-42.775,42.775h-3.457a42.775,42.775,0,0,1-42.775-42.775V207.59a42.775,42.775,0,0,1,42.775-42.775h3.457m0-5h-3.457a47.829,47.829,0,0,0-47.775,47.775v3.456a47.829,47.829,0,0,0,47.775,47.775h3.457a47.829,47.829,0,0,0,47.775-47.775V207.59a47.829,47.829,0,0,0-47.775-47.775Z" fill="#fff"/>
  </g>
  <g>
    <g>
      <rect x="178.178" y="161.883" width="94.87" height="94.87" rx="45.707" fill="#59575c"/>
      <path d="M227.341,164.383a43.207,43.207,0,0,1,43.207,43.207v3.456a43.207,43.207,0,0,1-43.207,43.207h-3.457a43.206,43.206,0,0,1-43.206-43.207V207.59a43.206,43.206,0,0,1,43.206-43.207h3.457m0-5h-3.457a48.261,48.261,0,0,0-48.206,48.207v3.456a48.261,48.261,0,0,0,48.206,48.207h3.457a48.262,48.262,0,0,0,48.207-48.207V207.59a48.262,48.262,0,0,0-48.207-48.207Z" fill="#fff"/>
    </g>
    <path d="M227.341,164.815a42.775,42.775,0,0,1,42.775,42.775v3.456a42.775,42.775,0,0,1-42.775,42.775h-3.457a42.774,42.774,0,0,1-42.774-42.775V207.59a42.774,42.774,0,0,1,42.774-42.775h3.457m0-5h-3.457A47.829,47.829,0,0,0,176.11,207.59v3.456a47.829,47.829,0,0,0,47.774,47.775h3.457a47.829,47.829,0,0,0,47.775-47.775V207.59a47.829,47.829,0,0,0-47.775-47.775Z" fill="#fff"/>
  </g>
  <g>
    <path d="M92.351,83.169v-.018a1.433,1.433,0,0,0-1.5-1.477,1.32,1.32,0,0,0-1.368,1.351c0,.864.576,1.369,1.71,1.692,2.81.829,4,2.089,4,4.268a4.1,4.1,0,0,1-4.322,4.249,4.253,4.253,0,0,1-4.339-4.087h2.593a1.8,1.8,0,0,0,3.6.09c0-.972-.648-1.548-1.711-1.927-2.106-.756-4-1.35-4-4.141a3.779,3.779,0,0,1,3.907-3.8,3.933,3.933,0,0,1,3.944,3.8Z" fill="#fff"/>
    <path d="M104.969,92.964V91.722a4.94,4.94,0,0,1-3.511,1.566c-2.809,0-4.843-2.359-4.843-5.384a5.069,5.069,0,0,1,5.005-5.275,4.342,4.342,0,0,1,3.313,1.6h.036V82.971h2.2v9.993ZM104.9,87.94a2.946,2.946,0,0,0-2.934-3.115,3.138,3.138,0,0,0,.017,6.266A2.972,2.972,0,0,0,104.9,87.94Z" fill="#fff"/>
    <path d="M108.981,92.964V79.64h2.4V92.964Z" fill="#fff"/>
    <path d="M115.407,89.039a2.906,2.906,0,0,0,2.755,2.052,2.469,2.469,0,0,0,2.3-1.278h2.52a5.346,5.346,0,1,1,.325-1.98,5.933,5.933,0,0,1-.144,1.206Zm5.456-1.927a2.558,2.558,0,0,0-2.719-2.287,2.79,2.79,0,0,0-2.809,2.287Z" fill="#fff"/>
    <path d="M128.818,85.69c-.126-.522-.4-.865-.955-.865a.878.878,0,0,0-.918.865c0,.468.2.684,1.639,1.1,2.341.684,2.844,1.729,2.844,3.007a3.428,3.428,0,0,1-3.492,3.493,3.512,3.512,0,0,1-3.745-3.475h2.448c.2.919.63,1.278,1.315,1.278a1.014,1.014,0,0,0,1.08-1.008c0-.7-.522-.918-1.891-1.368-2-.63-2.593-1.747-2.593-2.989a3.312,3.312,0,0,1,6.608-.036Z" fill="#fff"/>
    <path d="M132.884,92.964V85.1h-.846V82.971h.846c.181-2.827,2.089-3.6,3.278-3.6h.648v2.359c-1.224,0-1.477.324-1.531,1.242h1.405V85.1h-1.405v7.868Z" fill="#fff"/>
    <path d="M137.258,87.977a5.345,5.345,0,0,1,5.33-5.348,5.272,5.272,0,0,1,5.294,5.311,5.214,5.214,0,0,1-5.294,5.348A5.361,5.361,0,0,1,137.258,87.977Zm8.229.017a2.926,2.926,0,1,0-5.834-.017,2.923,2.923,0,1,0,5.834.017Z" fill="#fff"/>
    <path d="M149.462,92.964V82.971h2.2v.882h.036a2.308,2.308,0,0,1,2.287-1.224h.053v2.323a2.041,2.041,0,0,0-2.178,2.322v5.69Z" fill="#fff"/>
    <path d="M164.586,89.705a5.187,5.187,0,0,1-5.006,3.583,5.33,5.33,0,0,1-.018-10.659,5.22,5.22,0,0,1,5.024,3.655h-2.7a2.487,2.487,0,0,0-2.322-1.459,2.935,2.935,0,0,0-2.9,3.134,3.009,3.009,0,0,0,3.007,3.132,2.584,2.584,0,0,0,2.214-1.386Z" fill="#fff"/>
    <path d="M168.2,89.039a2.906,2.906,0,0,0,2.755,2.052,2.467,2.467,0,0,0,2.3-1.278h2.521a5.239,5.239,0,1,1-4.843-7.184,5.131,5.131,0,0,1,5.168,5.2,6,6,0,0,1-.144,1.206Zm5.456-1.927a2.558,2.558,0,0,0-2.719-2.287,2.79,2.79,0,0,0-2.809,2.287Z" fill="#fff"/>
    <path d="M182.942,92.964V79.64h3.151c1.783,0,2.935.36,3.655,1.1a3.413,3.413,0,0,1,1.063,2.431,2.685,2.685,0,0,1-1.5,2.521A3.181,3.181,0,0,1,191.6,89c0,1.944-1.3,3.961-4.844,3.961Zm3.331-8.139c1.423,0,2.071-.522,2.071-1.44s-.72-1.441-1.855-1.441h-1.08v2.881Zm.432,5.834c1.513,0,2.431-.558,2.431-1.764,0-1.135-1.008-1.765-2.377-1.765h-1.35v3.529Z" fill="#cfe9fe"/>
    <path d="M193.094,92.964V79.64h2.4V92.964Z" fill="#cfe9fe"/>
    <path d="M204.04,92.964V91.956H204a2.931,2.931,0,0,1-2.431,1.332c-2.4,0-4.231-1.261-4.231-4.447v-5.87h2.395v5.168c0,1.944.648,2.952,2.088,2.952,1.387,0,2.017-1.188,2.017-2.935V82.971h2.395v9.993Z" fill="#cfe9fe"/>
    <path d="M210.321,89.039a2.9,2.9,0,0,0,2.754,2.052,2.469,2.469,0,0,0,2.305-1.278H217.9a5.239,5.239,0,1,1-4.844-7.184,5.131,5.131,0,0,1,5.168,5.2,5.933,5.933,0,0,1-.144,1.206Zm5.455-1.927a2.558,2.558,0,0,0-2.719-2.287,2.79,2.79,0,0,0-2.809,2.287Z" fill="#cfe9fe"/>
  </g>
  <g>
    <path d="M92.567,206.322V206.3a1.434,1.434,0,0,0-1.495-1.477,1.32,1.32,0,0,0-1.368,1.351c0,.864.576,1.369,1.71,1.692,2.809.829,4,2.089,4,4.268a4.1,4.1,0,0,1-4.321,4.249,4.253,4.253,0,0,1-4.339-4.087h2.592a1.8,1.8,0,0,0,3.6.09c0-.972-.648-1.548-1.711-1.927-2.106-.756-4-1.35-4-4.141a3.779,3.779,0,0,1,3.907-3.8,3.933,3.933,0,0,1,3.944,3.8Z" fill="#fff"/>
    <path d="M105.185,216.117v-1.242a4.94,4.94,0,0,1-3.511,1.566c-2.809,0-4.843-2.359-4.843-5.384a5.069,5.069,0,0,1,5-5.275,4.344,4.344,0,0,1,3.313,1.6h.036v-1.261h2.2v9.993Zm-.072-5.023a2.947,2.947,0,0,0-2.935-3.116,3.138,3.138,0,0,0,.018,6.266A2.972,2.972,0,0,0,105.113,211.094Z" fill="#fff"/>
    <path d="M109.2,216.117V202.793h2.4v13.324Z" fill="#fff"/>
    <path d="M115.623,212.192a2.906,2.906,0,0,0,2.755,2.052,2.468,2.468,0,0,0,2.3-1.278H123.2a5.346,5.346,0,1,1,.325-1.98,5.938,5.938,0,0,1-.145,1.206Zm5.456-1.927a2.559,2.559,0,0,0-2.719-2.287,2.789,2.789,0,0,0-2.809,2.287Z" fill="#fff"/>
    <path d="M129.034,208.843c-.127-.522-.4-.865-.955-.865a.878.878,0,0,0-.918.865c0,.468.2.684,1.639,1.1,2.34.684,2.844,1.729,2.844,3.007a3.428,3.428,0,0,1-3.492,3.493,3.512,3.512,0,0,1-3.746-3.475h2.449c.2.919.63,1.278,1.315,1.278a1.014,1.014,0,0,0,1.08-1.008c0-.7-.522-.918-1.891-1.368-2-.63-2.593-1.747-2.593-2.989a3.312,3.312,0,0,1,6.608-.036Z" fill="#fff"/>
    <path d="M133.1,216.117v-7.868h-.846v-2.125h.846c.18-2.827,2.089-3.6,3.278-3.6h.648v2.359c-1.225,0-1.477.324-1.531,1.242H136.9v2.125H135.5v7.868Z" fill="#fff"/>
    <path d="M137.474,211.13a5.345,5.345,0,0,1,5.33-5.348,5.271,5.271,0,0,1,5.293,5.312,5.213,5.213,0,0,1-5.293,5.347A5.36,5.36,0,0,1,137.474,211.13Zm8.229.017a2.926,2.926,0,1,0-5.834-.017,2.923,2.923,0,1,0,5.834.017Z" fill="#fff"/>
    <path d="M149.678,216.117v-9.993h2.2v.882h.036a2.308,2.308,0,0,1,2.286-1.224h.054v2.323a2.041,2.041,0,0,0-2.178,2.323v5.689Z" fill="#fff"/>
    <path d="M164.8,212.858a5.185,5.185,0,0,1-5,3.583,5.33,5.33,0,0,1-.018-10.659,5.218,5.218,0,0,1,5.023,3.655h-2.7a2.487,2.487,0,0,0-2.322-1.459,2.935,2.935,0,0,0-2.9,3.134,3.008,3.008,0,0,0,3.007,3.132,2.585,2.585,0,0,0,2.214-1.386Z" fill="#fff"/>
    <path d="M168.417,212.192a2.906,2.906,0,0,0,2.755,2.052,2.468,2.468,0,0,0,2.3-1.278H176a5.239,5.239,0,1,1-4.843-7.184,5.131,5.131,0,0,1,5.167,5.2,5.933,5.933,0,0,1-.144,1.206Zm5.456-1.927a2.559,2.559,0,0,0-2.719-2.287,2.789,2.789,0,0,0-2.809,2.287Z" fill="#fff"/>
    <path d="M191.224,216.117l-5.563-9.687h-.036v9.687h-2.467V202.793h2.809l5.509,9.687h.036v-9.687h2.467v13.324Z" fill="#f5f2f2"/>
    <path d="M198.3,212.192a2.9,2.9,0,0,0,2.754,2.052,2.469,2.469,0,0,0,2.305-1.278h2.521a5.239,5.239,0,1,1-4.844-7.184,5.131,5.131,0,0,1,5.168,5.2,5.933,5.933,0,0,1-.144,1.206Zm5.455-1.927a2.557,2.557,0,0,0-2.719-2.287,2.789,2.789,0,0,0-2.809,2.287Z" fill="#f5f2f2"/>
    <path d="M214.336,216.117v-1.008H214.3a2.932,2.932,0,0,1-2.431,1.332c-2.4,0-4.231-1.261-4.231-4.447v-5.87h2.394v5.168c0,1.944.649,2.952,2.089,2.952,1.387,0,2.017-1.188,2.017-2.935v-5.185h2.394v9.993Z" fill="#f5f2f2"/>
    <path d="M219.086,216.117v-7.868h-1.171v-2.125h1.171v-3.331h2.395v3.331h1.44v2.125h-1.44v7.868Z" fill="#f5f2f2"/>
    <path d="M224.071,216.117v-9.993h2.2v.882h.036a2.309,2.309,0,0,1,2.287-1.224h.054v2.323a2.041,2.041,0,0,0-2.178,2.323v5.689Z" fill="#f5f2f2"/>
    <path d="M237.052,216.117v-1.242a4.942,4.942,0,0,1-3.511,1.566c-2.809,0-4.844-2.359-4.844-5.384a5.069,5.069,0,0,1,5.006-5.275,4.344,4.344,0,0,1,3.313,1.6h.036v-1.261h2.2v9.993Zm-.072-5.023a2.947,2.947,0,0,0-2.935-3.116,3.138,3.138,0,0,0,.018,6.266A2.973,2.973,0,0,0,236.98,211.094Z" fill="#f5f2f2"/>
    <path d="M241.063,216.117V202.793h2.4v13.324Z" fill="#f5f2f2"/>
  </g>
</svg>
