<svg xmlns="http://www.w3.org/2000/svg" width="1000" height="295.463" viewBox="0 0 1000 295.463">
  <g>
    <path d="M95.146,108.574l3.916-5.16a17.281,17.281,0,0,0,5.253,2.674,20.67,20.67,0,0,0,5.938.808,10.649,10.649,0,0,0,6.185-1.617,5.506,5.506,0,0,0,2.332-4.849,5.85,5.85,0,0,0-1.12-3.761,7.9,7.9,0,0,0-3.2-2.269,48.548,48.548,0,0,0-5.751-1.865q-5.967-1.554-9.045-4.57a10.841,10.841,0,0,1-3.078-8.113,11.045,11.045,0,0,1,2.052-6.714,12.625,12.625,0,0,1,5.564-4.227,20.866,20.866,0,0,1,7.927-1.43,24.041,24.041,0,0,1,14.236,4.351l-3.667,5.285a21.511,21.511,0,0,0-5.1-2.363,18.314,18.314,0,0,0-5.284-.745,10.2,10.2,0,0,0-5.565,1.336,4.452,4.452,0,0,0-2.083,4.01,4.634,4.634,0,0,0,2.114,4.134,25.317,25.317,0,0,0,7.025,2.7q6.465,1.677,9.885,4.818t3.42,9.108a12.5,12.5,0,0,1-2.239,7.553,13.245,13.245,0,0,1-6.061,4.569,23.161,23.161,0,0,1-8.487,1.492,25.054,25.054,0,0,1-8.267-1.336A22.421,22.421,0,0,1,95.146,108.574Z" fill="#fff"/>
    <path d="M131.639,103.476q0-6.341,4.507-8.828t12.962-2.486q2.052,0,3.109.062V90.607q0-5.221-6.653-5.222a19.539,19.539,0,0,0-9.387,2.487l-2.611-5.16a23.793,23.793,0,0,1,5.906-2.456,24.692,24.692,0,0,1,6.528-.9q7.4,0,10.692,3.326t3.295,10.165v12.309q0,2.364.56,7.4H153.4q-.435-2.548-.559-3.668h-.187a10.933,10.933,0,0,1-4.165,3.42,15.433,15.433,0,0,1-6.4,1.119,11,11,0,0,1-7.46-2.58A9.213,9.213,0,0,1,131.639,103.476Zm20.639-3.419V97.446l-2.362-.062q-5.47,0-7.833,1.275a4.452,4.452,0,0,0-2.362,4.258,4.224,4.224,0,0,0,1.243,3.264,4.749,4.749,0,0,0,3.357,1.15,8.155,8.155,0,0,0,4.1-1.026,7.807,7.807,0,0,0,2.828-2.673A6.635,6.635,0,0,0,152.278,100.057Z" fill="#fff"/>
    <path d="M177.27,68.538v44.015H169.5V68.538Z" fill="#fff"/>
    <path d="M215.255,99.249H192.749a9.368,9.368,0,0,0,2.767,5.937,8.886,8.886,0,0,0,6.248,2.083,14.827,14.827,0,0,0,4.818-.715,21.527,21.527,0,0,0,4.445-2.207l3.357,4.973a20.856,20.856,0,0,1-6,3.078,23.279,23.279,0,0,1-7.118,1.026,17.273,17.273,0,0,1-8.766-2.114,14.1,14.1,0,0,1-5.627-5.968,19.519,19.519,0,0,1-1.958-8.953q0-7.709,4.072-12.371t11.533-4.663q7.334,0,11.127,4.6t3.793,12.372A22.626,22.626,0,0,1,215.255,99.249Zm-7.461-5.844a9.752,9.752,0,0,0-1.958-5.906,6.47,6.47,0,0,0-5.378-2.3A6.86,6.86,0,0,0,194.9,87.53a9.946,9.946,0,0,0-2.207,5.875Z" fill="#fff"/>
    <path d="M244.349,82.774l-3.109,4.911a14.344,14.344,0,0,0-7.646-2.362,7.385,7.385,0,0,0-3.855.84,2.655,2.655,0,0,0-1.368,2.393,3.237,3.237,0,0,0,.622,2.083,4.836,4.836,0,0,0,2.021,1.337,32.747,32.747,0,0,0,4.32,1.243,15.394,15.394,0,0,1,7.119,3.512,8.168,8.168,0,0,1,2.393,6.124,9.024,9.024,0,0,1-3.854,7.833,15.908,15.908,0,0,1-9.45,2.736,19.046,19.046,0,0,1-11.937-3.668l3.358-4.85a17.289,17.289,0,0,0,3.947,1.865,13.993,13.993,0,0,0,4.259.622,7.3,7.3,0,0,0,4.135-1,3.372,3.372,0,0,0,1.461-2.984,3.11,3.11,0,0,0-.622-2.051,5.038,5.038,0,0,0-1.99-1.306,31.42,31.42,0,0,0-4.227-1.243,14.694,14.694,0,0,1-7.057-3.482,8.546,8.546,0,0,1-2.268-6.279,8.367,8.367,0,0,1,3.481-7.118,15.09,15.09,0,0,1,9.2-2.58A18.041,18.041,0,0,1,244.349,82.774Z" fill="#fff"/>
    <path d="M271.517,68.724l-1.865,5.533a12.28,12.28,0,0,0-3.42-.435q-5.408,0-5.408,5.222v1.492h7.647v5.906h-7.647v26.111h-7.771V86.442h-5.284V81.469l5.284-.933V78.8q0-5.222,2.953-8.144t9.046-2.984A19.252,19.252,0,0,1,271.517,68.724Z" fill="#fff"/>
    <path d="M305.4,96.265a19.066,19.066,0,0,1-2.02,8.921,14.571,14.571,0,0,1-5.845,6.061,17.852,17.852,0,0,1-8.983,2.177,17.494,17.494,0,0,1-8.952-2.207,14.822,14.822,0,0,1-5.813-6.093,20.647,20.647,0,0,1-.031-17.749,14.223,14.223,0,0,1,5.751-5.906,18.189,18.189,0,0,1,9.045-2.114,18.373,18.373,0,0,1,9.077,2.114,14.181,14.181,0,0,1,5.781,5.906A18.881,18.881,0,0,1,305.4,96.265Zm-25.551,0a13.793,13.793,0,0,0,2.083,7.989q2.08,3.016,6.682,3.015t6.715-3.015a13.66,13.66,0,0,0,2.113-7.989,12.958,12.958,0,0,0-2.113-7.8q-2.115-2.89-6.777-2.891-4.6,0-6.652,2.891A13.239,13.239,0,0,0,279.847,96.265Z" fill="#fff"/>
    <path d="M313.045,87.623q0-2.361-.56-7.4h7.46a35.211,35.211,0,0,1,.5,4.476h.125q2.859-5.346,9.574-5.347a7.241,7.241,0,0,1,1.989.249l-.311,6.714a12.4,12.4,0,0,0-2.362-.187,7.9,7.9,0,0,0-6.372,2.674,10.1,10.1,0,0,0-2.27,6.776v16.972h-7.77Z" fill="#fff"/>
    <path d="M350.968,79.355a17.768,17.768,0,0,1,10.817,3.481l-2.922,5.409a14.153,14.153,0,0,0-7.833-2.424q-4.414,0-6.591,2.8t-2.175,7.709a12.451,12.451,0,0,0,2.175,7.678,7.586,7.586,0,0,0,6.466,2.891,15.9,15.9,0,0,0,8.02-2.487l2.8,5.533a19.333,19.333,0,0,1-5.347,2.58,20.581,20.581,0,0,1-6.092.9q-5.907,0-9.45-2.612a13.966,13.966,0,0,1-4.974-6.465,22.855,22.855,0,0,1-1.429-8.02,19.2,19.2,0,0,1,1.989-8.983,14.039,14.039,0,0,1,5.72-5.906A17.825,17.825,0,0,1,350.968,79.355Z" fill="#fff"/>
    <path d="M395.791,99.249H373.285a9.368,9.368,0,0,0,2.767,5.937,8.886,8.886,0,0,0,6.248,2.083,14.822,14.822,0,0,0,4.818-.715,21.527,21.527,0,0,0,4.445-2.207l3.357,4.973a20.856,20.856,0,0,1-6,3.078,23.279,23.279,0,0,1-7.118,1.026,17.273,17.273,0,0,1-8.766-2.114,14.1,14.1,0,0,1-5.627-5.968,19.519,19.519,0,0,1-1.958-8.953q0-7.709,4.072-12.371t11.533-4.663q7.334,0,11.128,4.6t3.793,12.372A22.625,22.625,0,0,1,395.791,99.249Zm-7.461-5.844a9.752,9.752,0,0,0-1.958-5.906,6.47,6.47,0,0,0-5.378-2.3,6.86,6.86,0,0,0-5.563,2.331,9.946,9.946,0,0,0-2.207,5.875Z" fill="#fff"/>
    <path d="M417.052,108.574l3.917-5.16a17.258,17.258,0,0,0,5.253,2.674,20.658,20.658,0,0,0,5.937.808,10.652,10.652,0,0,0,6.186-1.617,5.508,5.508,0,0,0,2.331-4.849,5.849,5.849,0,0,0-1.119-3.761,7.9,7.9,0,0,0-3.2-2.269,48.548,48.548,0,0,0-5.751-1.865q-5.967-1.554-9.044-4.57a10.838,10.838,0,0,1-3.079-8.113,11.045,11.045,0,0,1,2.052-6.714,12.623,12.623,0,0,1,5.565-4.227,20.857,20.857,0,0,1,7.926-1.43,24.047,24.047,0,0,1,14.237,4.351l-3.668,5.285a21.493,21.493,0,0,0-5.1-2.363,18.314,18.314,0,0,0-5.284-.745,10.2,10.2,0,0,0-5.565,1.336,4.452,4.452,0,0,0-2.083,4.01,4.635,4.635,0,0,0,2.115,4.134,25.308,25.308,0,0,0,7.024,2.7q6.466,1.677,9.885,4.818t3.42,9.108a12.5,12.5,0,0,1-2.238,7.553,13.253,13.253,0,0,1-6.062,4.569,23.159,23.159,0,0,1-8.486,1.492,25.056,25.056,0,0,1-8.268-1.336A22.421,22.421,0,0,1,417.052,108.574Z" fill="#fff"/>
    <path d="M453.545,103.476q0-6.341,4.508-8.828t12.962-2.486q2.051,0,3.108.062V90.607q0-5.221-6.652-5.222a19.54,19.54,0,0,0-9.388,2.487l-2.61-5.16a23.785,23.785,0,0,1,5.9-2.456,24.692,24.692,0,0,1,6.528-.9q7.4,0,10.693,3.326t3.3,10.165v12.309q0,2.364.559,7.4H475.3q-.435-2.548-.56-3.668h-.186a10.948,10.948,0,0,1-4.165,3.42,15.438,15.438,0,0,1-6.4,1.119,11.007,11.007,0,0,1-7.46-2.58A9.213,9.213,0,0,1,453.545,103.476Zm20.64-3.419V97.446l-2.363-.062q-5.471,0-7.833,1.275a4.452,4.452,0,0,0-2.362,4.258,4.224,4.224,0,0,0,1.243,3.264,4.749,4.749,0,0,0,3.358,1.15,8.152,8.152,0,0,0,4.1-1.026,7.8,7.8,0,0,0,2.828-2.673A6.636,6.636,0,0,0,474.185,100.057Z" fill="#fff"/>
    <path d="M491.405,87.623q0-2.361-.559-7.4h7.46a30.759,30.759,0,0,1,.5,3.729h.125a11.156,11.156,0,0,1,4.289-3.326,15.047,15.047,0,0,1,6.4-1.274,12.251,12.251,0,0,1,6.684,1.679,10.2,10.2,0,0,1,3.884,4.351,13.53,13.53,0,0,1,1.245,5.782v21.386h-7.772V92.846a8.018,8.018,0,0,0-1.523-5.067q-1.524-1.957-5.067-1.958a7.228,7.228,0,0,0-5.781,2.455,9.327,9.327,0,0,0-2.114,6.31v17.967h-7.771Z" fill="#fff"/>
    <path d="M552.081,82.774l-3.108,4.911a14.347,14.347,0,0,0-7.647-2.362,7.381,7.381,0,0,0-3.854.84,2.655,2.655,0,0,0-1.368,2.393,3.237,3.237,0,0,0,.622,2.083,4.832,4.832,0,0,0,2.02,1.337,32.794,32.794,0,0,0,4.32,1.243,15.393,15.393,0,0,1,7.12,3.512,8.171,8.171,0,0,1,2.392,6.124,9.025,9.025,0,0,1-3.853,7.833,15.911,15.911,0,0,1-9.451,2.736,19.043,19.043,0,0,1-11.936-3.668l3.357-4.85a17.3,17.3,0,0,0,3.948,1.865,13.982,13.982,0,0,0,4.258.622,7.3,7.3,0,0,0,4.135-1,3.37,3.37,0,0,0,1.461-2.984,3.11,3.11,0,0,0-.622-2.051,5.033,5.033,0,0,0-1.989-1.306,31.444,31.444,0,0,0-4.228-1.243,14.69,14.69,0,0,1-7.056-3.482,8.547,8.547,0,0,1-2.269-6.279,8.367,8.367,0,0,1,3.481-7.118,15.094,15.094,0,0,1,9.2-2.58A18.038,18.038,0,0,1,552.081,82.774Z" fill="#fff"/>
  </g>
  <g>
    <path d="M99.871,217.077v-46h8.517v46Z" fill="#fff"/>
    <path d="M121.692,217.077V179.032h-8.516v-7.957h25.611v7.957h-8.578v38.045Z" fill="#fff"/>
    <path d="M186.282,204.271a23.469,23.469,0,0,1-21.26,13.738,24.278,24.278,0,0,1-24-24.12,24,24,0,0,1,23.81-23.746,23.621,23.621,0,0,1,21.695,14.049h-9.7c-3.294-3.792-7.148-6.092-12.309-6.092-8.33,0-14.981,7.77-14.981,15.914,0,8.268,6.838,16.038,15.293,16.038,4.289,0,7.77-1.554,11.562-5.781Z" fill="#fff"/>
    <path d="M240.93,217.077,236.019,205.2H219.546l-4.911,11.874h-9.387l19.147-46h6.651l19.27,46Zm-13.179-34h-.124l-5.222,14.111h10.568Z" fill="#fff"/>
    <path d="M261.82,217.077l-13.924-34.5h8.951l8.33,22.876h.186l7.833-22.876h9.076l-13.987,34.5Z" fill="#fff"/>
    <path d="M313.046,217.077v-4.29a17.05,17.05,0,0,1-12.122,5.409c-9.7,0-16.722-8.144-16.722-18.588,0-10.008,7.273-18.214,17.281-18.214,4.849,0,9.636,2.86,11.439,5.533h.124v-4.351h7.584v34.5Zm-.248-17.344c0-6.03-4.165-10.755-10.133-10.755-5.781,0-10.195,4.849-10.195,11a10.391,10.391,0,0,0,10.257,10.631C308.757,210.612,312.8,205.638,312.8,199.733Z" fill="#fff"/>
    <path d="M349.29,217.077V199.733c0-7.025-2.3-10.755-6.963-10.755-2.549,0-7.148,1.679-7.148,9.263v18.836H326.91v-34.5h7.647v2.983c2.735-2.673,5.533-4.165,9.511-4.165,4.476,0,13.49,2.8,13.49,15.293v20.39Z" fill="#fff"/>
    <path d="M366.2,217.077V189.911h-4.04v-7.335h4.04v-11.5h8.269v11.5h4.972v7.335h-4.972v27.166Z" fill="#fff"/>
    <path d="M447.7,194.387a22.916,22.916,0,0,1-7.335,16.846,24.93,24.93,0,0,1-17.033,6.776c-12.806,0-24.741-9.822-24.741-23.933,0-13.117,11.127-23.933,24.492-23.933,8.827,0,19.022,5.408,22.317,14.422H435.2A14.982,14.982,0,0,0,422.9,178.1a15.978,15.978,0,1,0,.435,31.952,15.186,15.186,0,0,0,13.614-8.454H417.674v-7.957H447.7Z" fill="#fff"/>
    <path d="M479.655,217.077v-4.29a17.05,17.05,0,0,1-12.122,5.409c-9.7,0-16.721-8.144-16.721-18.588,0-10.008,7.272-18.214,17.281-18.214,4.848,0,9.636,2.86,11.438,5.533h.124v-4.351h7.584v34.5Zm-.248-17.344c0-6.03-4.165-10.755-10.133-10.755-5.781,0-10.195,4.849-10.195,11a10.391,10.391,0,0,0,10.257,10.631C475.366,210.612,479.407,205.638,479.407,199.733Z" fill="#fff"/>
    <path d="M494.08,217.077v-34.5h7.584v3.046h.125c2.176-3.233,3.979-4.228,7.9-4.228h.186v8.02c-4.973.186-7.521,2.859-7.521,8.019v19.644Z" fill="#fff"/>
    <path d="M539.213,217.077V212.85h-.125c-2.237,3.48-6.465,5.346-11,5.346-9.636,0-17.593-8.082-17.593-18.339a18.089,18.089,0,0,1,17.779-18.463,13.258,13.258,0,0,1,10.257,4.228V171.075H546.8v46ZM539.15,199.8c0-5.719-4.414-10.817-10.256-10.817-5.223,0-10.133,4.849-10.133,10.568,0,6.092,4.475,11.066,10.194,11.066C534.55,210.612,539.15,205.7,539.15,199.8Z" fill="#fff"/>
    <path d="M560.04,203.525c.622,3.046,4.414,7.087,9.512,7.087a8.526,8.526,0,0,0,7.957-4.414h8.7a17.945,17.945,0,0,1-34.874-6.279c0-10.2,7.646-18.525,18.152-18.525A17.713,17.713,0,0,1,587.33,199.36a20.481,20.481,0,0,1-.5,4.165Zm18.836-6.652c-.808-4.973-4.228-7.895-9.387-7.895-4.538,0-8.392,2.611-9.7,7.895Z" fill="#fff"/>
    <path d="M657.393,194.387a22.916,22.916,0,0,1-7.335,16.846,24.933,24.933,0,0,1-17.034,6.776c-12.8,0-24.741-9.822-24.741-23.933,0-13.117,11.127-23.933,24.492-23.933,8.828,0,19.023,5.408,22.318,14.422H644.9a14.981,14.981,0,0,0-12.308-6.465,15.978,15.978,0,1,0,.435,31.952,15.188,15.188,0,0,0,13.615-8.454H627.367v-7.957h30.026Z" fill="#fff"/>
    <path d="M660.38,199.857a18.451,18.451,0,0,1,18.4-18.463,18.2,18.2,0,0,1,18.277,18.339c0,10.319-7.709,18.463-18.277,18.463A18.507,18.507,0,0,1,660.38,199.857Zm28.409.062c0-5.657-4.227-10.941-10.07-10.941-5.532,0-10.071,5.1-10.071,10.879s4.227,10.755,10.133,10.755C684.624,210.612,688.789,205.638,688.789,199.919Z" fill="#fff"/>
    <path d="M703.96,217.077V189.911h-4.04v-7.335h4.04v-11.5h8.269v11.5H717.2v7.335h-4.972v27.166Z" fill="#fff"/>
    <path d="M742.938,217.077V199.111c0-7.149-2.363-10.133-7.087-10.133s-6.962,3.357-6.962,10.257v17.842H720.62v-46h8.269V185a12.34,12.34,0,0,1,8.951-3.606c4.165,0,13.365,2.922,13.365,14.609v21.074Z" fill="#fff"/>
    <path d="M757.859,178.659v-7.584h8.268v7.584Zm0,38.418v-34.5h8.268v34.5Z" fill="#fff"/>
    <path d="M807.4,205.825c-2.922,7.9-9.386,12.371-17.281,12.371a18.4,18.4,0,0,1-.062-36.8,18.02,18.02,0,0,1,17.343,12.62H798.08c-1.8-3.233-4.227-5.036-8.019-5.036-5.843,0-10.008,4.663-10.008,10.817s4.475,10.817,10.381,10.817c3.419,0,5.906-1.99,7.646-4.787Z" fill="#fff"/>
    <path d="M847.505,183.259V183.2c-.249-2.984-1.927-5.1-5.16-5.1a4.557,4.557,0,0,0-4.724,4.662c0,2.984,1.988,4.724,5.9,5.843,9.7,2.86,13.8,7.211,13.8,14.733,0,9.014-6.527,14.671-14.92,14.671A14.685,14.685,0,0,1,827.426,203.9h8.951c.435,3.792,2.674,6.154,6.093,6.154a6.078,6.078,0,0,0,6.341-5.844c0-3.357-2.239-5.346-5.907-6.651-7.273-2.611-13.8-4.663-13.8-14.3,0-7.832,6.216-13.116,13.49-13.116a13.577,13.577,0,0,1,13.614,13.116Z" fill="#fff"/>
    <path d="M864.353,217.077V189.911h-4.041v-7.335h4.041v-11.5h8.268v11.5h4.973v7.335h-4.973v27.166Z" fill="#fff"/>
    <path d="M908.49,217.077V212.85h-.124c-2.237,3.48-6.465,5.346-11,5.346-9.635,0-17.592-8.082-17.592-18.339a18.088,18.088,0,0,1,17.779-18.463,13.26,13.26,0,0,1,10.257,4.228V171.075h8.268v46Zm-.061-17.282c0-5.719-4.414-10.817-10.257-10.817-5.223,0-10.133,4.849-10.133,10.568,0,6.092,4.476,11.066,10.194,11.066C903.828,210.612,908.429,205.7,908.429,199.8Z" fill="#fff"/>
  </g>
</svg>
