<svg id="headerMedia" xmlns="http://www.w3.org/2000/svg" fill="#333" viewBox="0 0 958 958"><title>cube</title><path d="M780.94,300.87,501.76,139.7a45.89,45.89,0,0,0-45.69,0L177,300.87a45.64,45.64,0,0,0-22.8,39.57V662.77a45.61,45.61,0,0,0,22.88,39.57l279.1,161.17a45.87,45.87,0,0,0,45.68,0l279.1-161.17a45.75,45.75,0,0,0,22.88-39.57V340.44A45.61,45.61,0,0,0,780.94,300.87ZM460,789.61c0,25.51-22.71,23-44.81,10.22L211.39,682.25a45.31,45.31,0,0,1-22.88-38.78l.26-233.15c0-16.86,17.82-26.73,32.41-18.26l215.5,125.27c13.89,8,23.93,21.75,23.93,37.82Z"/><path d="M328.39,649.74c-23.59-1.13-51.89-24.55-57.13-47.52-1.92-8.47-1.57-17.12-1.4-28.13.26-5.33-.87-13.1,1.14-20.79,1.92-7.51,5.67-10.3,13.45-9.87,3.93.18,7.6,1.66,11,3.23a100.92,100.92,0,0,1,32.76,24.73c3.06,3.31,6.12,6.81,9.7,9.43,8.73,6.11,18,1.22,18.69-9.43.44-6.21-2.09-11.45-5.5-16.17-21.58-29.7-50.06-50.14-85.26-60.09-21.66-6.12-36.69,5-40.09,27.16-2.1,13.28-.79,26.65-1.14,40A104.56,104.56,0,0,0,232,602.66c14.41,37.3,42.19,62.11,76.35,80.71a96.79,96.79,0,0,0,32,11.27c15.63,2.36,22.1-5,16.51-19.48C351.8,662,344.63,650.53,328.39,649.74Z"/><path d="M390.84,684.68c-10.22-2.79-17.29,2.54-17.2,12.84.08,15.29,15.37,35.64,30.22,40.1,10.39,3.14,17.38-2.1,17.3-13C421.07,709.4,405.34,688.61,390.84,684.68Z"/></svg>
